<?xml version="1.0" encoding="UTF-8"?>
<svg id="Layer_1" xmlns="http://www.w3.org/2000/svg" width="400" height="400" version="1.1" viewBox="0 0 400 400">
  <!-- Generator: Adobe Illustrator 29.8.7, SVG Export Plug-In . SVG Version: 2.1.1 Build 1)  -->
  <defs>
    <style>
      .st0 {
        fill: #fff;
      }
    </style>
  </defs>
  <g id="Layer_11" data-name="Layer_1">
    <g>
      <path class="st0" d="M277.7,80.5c24.8,9.6,48.6,21.8,70.8,36.5,0,0,1.9,1.4,2.2,1.6,9.5,7,16.7,13.2,20,16.2s8.4,2.8,11.6-.3c3.2-3.3,3.3-8.5.1-11.9-6.1-6.6-56.2-38.3-104.7-42.1Z"/>
      <path class="st0" d="M284.2,363.5c38.7,0,70.1-31.4,70.1-70.1s-31.4-70.1-70.1-70.1-70.1,31.4-70.1,70.1,31.4,70,70.1,70.1ZM282.3,307c1.8-3.9,6.5-5.6,10.3-3.7,3.9,1.8,5.7,6.5,3.9,10.4-1.2,2.8-4,4.5-7,4.6-1.1,0-2.2-.3-3.2-.7l-.4-.2c-3.9-1.9-5.5-6.5-3.7-10.4h.1ZM276.4,339.8c0-4.3,3.5-7.8,7.8-7.8s7.8,3.5,7.8,7.8-3.4,7.9-7.8,8c-4.2,0-7.7-3.2-7.8-7.4v-.6ZM264.8,283.3h.4c4-1.6,8.5.5,10,4.5s-.6,8.5-4.6,10c-.9.3-1.8.5-2.7.5-3.3,0-6.3-2-7.4-5-1.5-3.9.4-8.3,4.3-9.9h.1,0ZM256.9,320.7c3,3,3,8,0,11s-3.6,2.3-5.7,2.3c-4.3,0-7.7-3.4-7.7-7.7s.8-3.9,2.2-5.4l.3-.3c3-3,8-3,11,0h0ZM229.9,293.5c0-4.2,3.2-7.7,7.4-7.8h.6c4.3,0,7.8,3.5,7.8,7.8s-3.5,7.8-7.8,7.8-7.9-3.4-8-7.8Z"/>
      <path class="st0" d="M13.2,137.6l74.1-11.4h1c1.8,0,3.6.7,4.9,2,19.1,19.1,51.6,25.7,51.9,25.8,1.9.4,3.6,1.5,4.6,3.2l34.6,57.7c3.5,5.8,11,7.7,16.9,4.2,4.9-3,7.2-9,5.3-14.4l-31-93c-3.4-10.2,0-21.4,8.4-28,18.4-13.6,40.9-20.6,63.7-19.9,37.5,0,82.9,13.7,135.1,40.8,3.5,1.8,7.8.4,9.6-3.1,1.5-3,.8-6.6-1.8-8.8-21.2-17-82.3-56.6-191.3-56.6-50.7.7-101.2,5.3-151.2,13.7-.4,0-.8,0-1.2,0H12.2c-3.8,0-6.9,3.1-6.9,6.9v73.9c0,3.8,3.1,6.9,6.9,6.9h1,0Z"/>
      <path class="st0" d="M192.4,94.7c-3.8,3-5.3,8-3.7,12.6l1.3,4c31.3-7.7,64.2-5.9,94.5,5.2,20.2,6.9,38.7,18.2,54.2,33,3.3,3,8.4,2.8,11.6-.3,3.3-3.3,3.3-8.6,0-12-2.7-2.7-5.5-5.3-8.5-7.8-11.5-8.6-24-15.9-37.2-21.5-28.6-12.5-58.9-21-89.9-25-8.1,2.7-15.6,6.7-22.4,11.8h0Z"/>
    </g>
  </g>
</svg>