<?xml version="1.0" encoding="UTF-8"?>
<svg id="Layer_1" xmlns="http://www.w3.org/2000/svg" width="400" height="400" version="1.1" viewBox="0 0 400 400">
  <!-- Generator: Adobe Illustrator 29.8.7, SVG Export Plug-In . SVG Version: 2.1.1 Build 1)  -->
  <defs>
    <style>
      .st0 {
        fill-rule: evenodd;
      }

      .st0, .st1 {
        fill: #fff;
      }
    </style>
  </defs>
  <g id="Layer_3">
    <path class="st0" d="M34.7,258.6c7.4-7.4,19.5-7.4,26.9,0l43.6,43.6v-144.4c0-73.6,59.7-133.3,133.3-133.3s133.3,59.7,133.3,133.3v111.3c0,10.5-8.5,19-19,19s-19-8.5-19-19v-111.3c0-52.6-42.6-95.2-95.2-95.2s-95.2,42.6-95.2,95.2v144.4l43.6-43.6c7.4-7.4,19.5-7.4,26.9,0s7.4,19.5,0,26.9l-89.6,89.6-89.6-89.6c-7.4-7.4-7.4-19.5,0-26.9h0Z"/>
    <path class="st1" d="M240.8,232.4c38.7,0,70.1-31.4,70.1-70.1s-31.4-70.1-70.1-70.1-70.1,31.4-70.1,70.1,31.4,70,70.1,70.1ZM238.9,175.8c1.8-3.9,6.5-5.6,10.3-3.7,3.9,1.8,5.7,6.5,3.9,10.4-1.2,2.8-4,4.5-7,4.6-1.1,0-2.2-.3-3.2-.7l-.4-.2c-3.9-1.9-5.5-6.5-3.7-10.4h.1ZM233,208.6c0-4.3,3.5-7.8,7.8-7.8s7.8,3.5,7.8,7.8-3.4,7.9-7.8,8c-4.2,0-7.7-3.2-7.8-7.4v-.6ZM221.4,152.1h.4c4-1.6,8.5.5,10,4.5s-.6,8.5-4.6,10c-.9.3-1.8.5-2.7.5-3.3,0-6.3-2-7.4-5-1.5-3.9.4-8.3,4.3-9.9h.1,0ZM213.5,189.5c3,3,3,8,0,11s-3.6,2.3-5.7,2.3c-4.3,0-7.7-3.4-7.7-7.7s.8-3.9,2.2-5.4l.3-.3c3-3,8-3,11,0h0ZM186.5,162.3c0-4.2,3.2-7.7,7.4-7.8h.6c4.3,0,7.8,3.5,7.8,7.8s-3.5,7.8-7.8,7.8-7.9-3.4-8-7.8h0Z"/>
  </g>
</svg>