<?xml version="1.0" encoding="UTF-8"?>
<svg id="Layer_1" xmlns="http://www.w3.org/2000/svg" width="400" height="400" version="1.1" viewBox="0 0 400 400">
  <!-- Generator: Adobe Illustrator 29.8.7, SVG Export Plug-In . SVG Version: 2.1.1 Build 1)  -->
  <defs>
    <style>
      .st0 {
        fill: #fff;
      }
    </style>
  </defs>
  <g id="Layer_2">
    <g>
      <polygon class="st0" points="320.1 12.4 295 12.4 287.9 46.3 313 46.3 320.1 12.4"/>
      <path class="st0" d="M316.5,93.3h-3.8l5.3-26.9c.9-4.3-2.3-8.3-6.7-8.3h-29c-3.3,0-6.1,2.2-6.7,5.5l-6,29.7h-6.9c-2.8,0-5.2,1.9-5.8,4.6l-7,33H105c-16.4,0-28.8,15.1-25.5,31.2l14,51c18.8-22.2,47.7-31.4,74.6-26.1h105.4c3.2,0,5.9,2.6,5.9,5.9s-2.6,5.9-5.9,5.9h-76.9c6.6,4.4,12.3,9.7,17.1,15.8h47.8c3.2,0,5.9,2.6,5.9,5.9s-2.6,5.9-5.9,5.9h-40.1c4.9,8.9,8,18.5,9.2,28.6h27.9c21.5,0,39.6-15.8,42.6-37.1l21.1-117.5c.8-3.7-2-7.1-5.8-7.1h0ZM284.2,167.8H117.3c-3.2,0-5.9-2.6-5.9-5.9s2.6-5.9,5.9-5.9h166.9c3.2,0,5.9,2.6,5.9,5.9s-2.6,5.9-5.9,5.9Z"/>
      <path class="st0" d="M213.7,375.4h-50.7c7.4-13.3,16.9-25,28.8-34.9,4.2-3.5,1.7-10.3-3.8-10.3h-69.6c-5.5,0-8,6.8-3.8,10.3,11.8,9.9,21.3,21.6,28.8,34.9h-53.7c-3.2,0-5.9,2.6-5.9,5.9s2.6,5.9,5.9,5.9h123.9c3.2,0,5.9-2.6,5.9-5.9s-2.6-5.9-5.9-5.9h0Z"/>
      <path class="st0" d="M200.1,310.7c26-26,25.8-68.1,0-93.9-26.1-26.1-68.2-25.7-93.9,0-25.9,25.9-25.9,67.9,0,93.9,25.9,25.9,68,25.9,93.9,0ZM197,279.5c2.6,2.6,2.5,6.8,0,9.3s-6.7,2.6-9.3,0-2.6-6.8,0-9.3c2.6-2.6,6.8-2.6,9.4,0h0ZM178.3,251.5c2.6-2.6,6.8-2.6,9.4,0s2.5,6.8,0,9.3-6.7,2.6-9.3,0-2.6-6.8,0-9.3h0ZM178.3,298.2c2.6,2.6,2.5,6.8,0,9.3s-6.7,2.6-9.3,0-2.6-6.8,0-9.3c2.6-2.6,6.8-2.6,9.4,0h0ZM159.6,270.2c2.6-2.6,6.8-2.6,9.4,0,2.6,2.6,2.5,6.8,0,9.3s-6.7,2.6-9.3,0-2.6-6.8,0-9.3h0ZM140.9,288.9c2.6-2.6,6.8-2.6,9.4,0s2.5,6.8,0,9.3-6.7,2.6-9.3,0-2.6-6.8,0-9.3h0Z"/>
    </g>
  </g>
</svg>